<?xml version="1.0" encoding="UTF-8"?>
<svg width="774px" height="774px" viewBox="0 0 774 774" version="1.1" xmlns="http://www.w3.org/2000/svg" xmlns:xlink="http://www.w3.org/1999/xlink">
    <!-- Generator: Sketch 50.2 (55047) - http://www.bohemiancoding.com/sketch -->
    <title>Artboard</title>
    <desc>Created with Sketch.</desc>
    <defs>
        <linearGradient x1="21.0291204%" y1="9.55602886%" x2="81.9759842%" y2="88.3240526%" id="linearGradient-1">
            <stop stop-color="#17FEB0" offset="0%"></stop>
            <stop stop-color="#10A9F3" offset="100%"></stop>
        </linearGradient>
        <circle id="path-2" cx="388" cy="388" r="325"></circle>
        <filter x="-17.8%" y="-15.4%" width="135.7%" height="135.7%" filterUnits="objectBoundingBox" id="filter-3">
            <feMorphology radius="12.5" operator="dilate" in="SourceAlpha" result="shadowSpreadOuter1"></feMorphology>
            <feOffset dx="0" dy="16" in="shadowSpreadOuter1" result="shadowOffsetOuter1"></feOffset>
            <feGaussianBlur stdDeviation="23.5" in="shadowOffsetOuter1" result="shadowBlurOuter1"></feGaussianBlur>
            <feColorMatrix values="0 0 0 0 0   0 0 0 0 0.995030825   0 0 0 0 0.946022853  0 0 0 0.581153759 0" type="matrix" in="shadowBlurOuter1"></feColorMatrix>
        </filter>
    </defs>
    <g id="Artboard" stroke="none" stroke-width="1" fill="none" fill-rule="evenodd">
        <g id="Oval">
            <use fill="black" fill-opacity="1" filter="url(#filter-3)" xlink:href="#path-2"></use>
            <use fill="url(#linearGradient-1)" fill-rule="evenodd" xlink:href="#path-2"></use>
        </g>
        <g id="reliable" transform="translate(172.000000, 141.000000)" fill="#FFFFFF" fill-rule="nonzero">
            <path d="M336.3545,216.030667 C335.75249,216.609164 335.153871,217.191184 334.558672,217.776698 C321.156665,231.015718 307.76492,244.244468 294.332127,257.462947 C292.700489,259.065187 291.068851,260.749593 289.170405,262.012898 C285.9687,264.118406 286.091843,266.963409 286.656246,270.167888 C288.369979,279.771057 289.940045,289.394767 291.633254,298.997935 C293.234107,308.056753 294.978625,317.09503 296.528168,326.164119 C298.12902,335.510518 299.565683,344.898 301.104964,354.25467 C301.546224,356.92507 302.110627,359.574928 302.685292,362.635617 C297.451737,359.913864 292.464466,357.356442 287.497719,354.747667 C283.146685,352.447015 278.84696,350.033384 274.485664,347.763545 C264.921598,342.76168 255.326745,337.852253 245.772941,332.840118 C236.229399,327.838253 226.716642,322.774765 217.224409,317.670193 C215.869842,316.951239 214.843654,316.951239 213.489087,317.670193 C197.819206,325.948432 182.108277,334.154776 166.417872,342.391933 L135.632251,358.599205 C133.220711,359.872781 130.839957,361.218251 128.100036,362.707513 C129.772722,352.65243 131.322265,343.049262 132.984688,333.466635 C134.749731,323.329386 136.678963,313.212679 138.423482,303.06516 C140.024334,293.811197 141.48152,284.526423 142.990015,275.251919 C143.40049,272.72531 143.462061,270.095993 144.262487,267.702904 C144.908985,265.792541 144.313797,264.827088 143.092634,263.63568 C134.400827,255.162295 125.739806,246.647828 117.058261,238.164174 C109.977568,231.231405 102.866089,224.308907 95.7648725,217.39668 L76.6367404,198.806589 C75.9902424,198.169801 75.384792,197.481659 74.4304372,196.464853 L85.4722136,194.759906 C92.686311,193.671204 99.8901463,192.561961 107.114505,191.514343 C114.072055,190.507808 121.039868,189.614251 127.997418,188.617986 C135.129419,187.590909 142.240898,186.471396 149.3729,185.413507 C154.788366,184.606877 160.20667,183.819446 165.627708,183.051229 C167.341441,182.815002 169.106483,182.79446 170.789431,182.424713 C171.425666,182.280922 172.123474,181.561968 172.43133,180.935451 C179.789094,166.094191 187.064762,151.222118 194.39174,136.360316 C201.195362,122.576944 208.019508,108.803844 214.843654,95.0307433 C214.946273,94.8253281 215.130987,94.6301833 215.459366,94.18854 C219.358878,101.963512 223.207081,109.512527 226.962927,117.112895 C237.081134,137.531183 247.281437,157.908388 257.112311,178.460196 C258.600283,181.561968 260.365325,182.66094 263.40284,183.051229 C272.997692,184.283722 282.592544,185.588109 292.166872,186.974663 C300.376371,188.176343 308.544822,189.593709 316.754321,190.795389 C323.896585,191.832736 331.059373,192.644127 338.201637,193.671204 C344.112476,194.513408 349.99253,195.519943 356.570391,196.547019 L336.3545,216.030667 M429.922263,133.022316 C429.614407,127.106353 428.896076,121.210932 428.352197,115.17172 C426.546107,115.17172 425.160754,115.274428 423.785663,115.16145 C419.219129,114.771161 414.580762,114.709536 410.116847,113.795437 C398.900619,111.494785 389.254458,106.195069 381.48622,97.5984356 C375.924284,91.4565158 371.870844,84.4621224 369.869779,76.4817353 C368.002118,69.0867819 366.791217,61.5172257 365.251936,53.8963153 C364.554129,53.6600878 363.507418,53.3211524 362.48123,52.9411338 C342.255077,45.5153682 322.018662,38.0998735 301.802771,30.6535659 C285.589011,24.6965199 269.395775,18.6470377 253.16149,12.741346 C242.489142,8.85899546 231.755222,5.0896232 221.000778,1.4024175 C216.51634,-0.13819778 212.329495,-0.857151778 207.403796,1.62837401 C200.466769,5.12043551 192.801149,7.14377671 185.453648,9.8244473 C173.580661,14.1587114 161.707672,18.5032465 149.844947,22.8683235 C131.424883,29.6675721 113.004821,36.4668213 94.5847574,43.2866112 C84.79493,46.9019219 75.0256261,50.5583153 65.3384176,54.173626 C64.7124431,58.7235763 64.4764202,63.2529852 63.4091849,67.566708 C61.880166,73.7291691 60.2690516,79.9635258 57.7138451,85.725427 C54.8713059,92.1754698 50.3663438,97.6600602 44.8967653,102.271635 C38.3599516,107.797309 30.9303555,111.710472 22.6079758,113.384606 C16.2558758,114.658182 9.69853859,114.90468 2.79229744,115.644176 C2.60758371,117.636705 2.38182229,119.814108 2.21763272,122.012052 C1.46851574,131.810365 0.524423569,141.608678 0.0729013299,151.427533 C-0.183645711,157.035373 0.29866275,162.694566 0.565471264,168.322947 C1.07856474,179.096983 1.58139675,189.87102 2.25868041,200.624515 C2.63836994,206.663726 3.10015425,212.72348 3.99293665,218.701067 C5.42959876,228.252882 6.85599939,237.835509 8.99046931,247.253804 C12.2537451,261.612338 15.5580686,276.011956 19.8988412,290.062367 C23.7778294,302.644058 28.9600758,314.83546 33.8139418,327.109029 C39.33483,341.077274 46.5386653,354.244399 54.3582124,367.021236 C61.6046782,378.974328 69.7378523,390.365835 78.6891149,401.099646 C86.5189247,410.404962 94.3282103,419.710278 103.615206,427.649582 C111.352659,434.274228 118.895136,441.145372 126.85835,447.482436 C140.111407,457.953154 154.382096,467.064583 169.455387,474.679432 C180.332974,480.225647 191.65182,484.898846 202.714119,490.085584 C209.435647,493.23871 216.608696,493.885769 223.381533,491.76999 C231.775745,489.150944 239.85184,485.402114 247.835578,481.632742 C264.941607,473.588389 281.29854,464.036569 296.712882,453.090276 C308.985383,444.241028 320.623466,434.542227 331.541681,424.065084 C335.297527,420.511398 338.807088,416.67013 342.244815,412.818592 C347.006324,407.467522 351.839667,402.147264 356.200964,396.48807 C365.806077,384.06044 374.887835,371.252792 382.163503,357.305089 C388.033295,346.048326 394.272514,334.914813 399.075071,323.195866 C404.883292,308.991393 409.737158,294.355548 414.283168,279.67862 C419.498693,262.690367 423.251144,245.286307 425.499396,227.657178 C427.089986,215.414421 428.742148,203.161395 429.870954,190.867285 C430.691904,181.870091 431.010022,172.801003 430.99976,163.762726 C430.979237,153.512499 430.445619,143.262272 429.922263,133.022316" id="Shape"></path>
        </g>
    </g>
</svg>