<?xml version="1.0" encoding="UTF-8"?>
<svg width="774px" height="774px" viewBox="0 0 774 774" version="1.1" xmlns="http://www.w3.org/2000/svg" xmlns:xlink="http://www.w3.org/1999/xlink">
    <!-- Generator: Sketch 50.2 (55047) - http://www.bohemiancoding.com/sketch -->
    <title>Artboard Copy</title>
    <desc>Created with Sketch.</desc>
    <defs>
        <linearGradient x1="50%" y1="0%" x2="50%" y2="100%" id="linearGradient-1">
            <stop stop-color="#B30B73" offset="0%"></stop>
            <stop stop-color="#3C148E" offset="100%"></stop>
        </linearGradient>
        <path d="M325,0.169712794 C145.613577,0.169712794 0.169712794,145.613577 0.169712794,325 C0.169712794,504.386423 145.528721,649.830287 325,649.830287 C504.386423,649.830287 649.830287,504.471279 649.830287,325 C649.830287,145.613577 504.386423,0.169712794 325,0.169712794 Z M229.536554,381.429504 C239.634465,392.969974 238.446475,410.450392 226.906005,420.548303 C221.644909,425.130548 215.110966,427.421671 208.66188,427.421671 C200.939948,427.421671 193.302872,424.197128 187.787206,418.002611 L122.617493,343.498695 C113.453003,332.976501 113.453003,317.362924 122.70235,306.925587 L188.975196,232.082245 C199.157963,220.626632 216.638381,219.608355 228.093995,229.706266 C239.549608,239.889034 240.567885,257.369452 230.469974,268.825065 L180.319843,325.424282 L229.536554,381.429504 Z M402.389034,208.66188 L298.949086,462.29765 C294.536554,473.074413 284.184073,479.523499 273.322454,479.523499 C269.843342,479.523499 266.279373,478.844648 262.885117,477.486945 C248.714099,471.71671 241.925587,455.509138 247.695822,441.422977 L351.13577,187.787206 C356.906005,173.616188 373.028721,166.827676 387.199739,172.597911 C401.370757,178.28329 408.159269,194.490862 402.389034,208.66188 Z M527.382507,343.413838 L462.212794,417.917755 C456.697128,424.197128 449.060052,427.336815 441.33812,427.336815 C434.889034,427.336815 428.355091,425.045692 423.093995,420.463446 C411.553525,410.365535 410.450392,392.885117 420.463446,381.344648 L469.5953,325.169713 L419.44517,268.570496 C409.347258,257.114883 410.365535,239.634465 421.821149,229.451697 C433.276762,219.26893 450.75718,220.372063 460.939948,231.827676 L527.212794,306.671018 C536.462141,317.278068 536.546997,332.891645 527.382507,343.413838 Z" id="path-2"></path>
        <filter x="-25.2%" y="-25.2%" width="154.0%" height="154.0%" filterUnits="objectBoundingBox" id="filter-3">
            <feMorphology radius="18.5" operator="dilate" in="SourceAlpha" result="shadowSpreadOuter1"></feMorphology>
            <feOffset dx="12" dy="12" in="shadowSpreadOuter1" result="shadowOffsetOuter1"></feOffset>
            <feGaussianBlur stdDeviation="38" in="shadowOffsetOuter1" result="shadowBlurOuter1"></feGaussianBlur>
            <feColorMatrix values="0 0 0 0 0.345161894   0 0 0 0 0.12349591   0 0 0 0 0.817734906  0 0 0 0.388473732 0" type="matrix" in="shadowBlurOuter1"></feColorMatrix>
        </filter>
    </defs>
    <g id="Artboard-Copy" stroke="none" stroke-width="1" fill="none" fill-rule="evenodd">
        <g id="执行c#源码_sys_icon42" transform="translate(62.000000, 62.000000)" fill-rule="nonzero">
            <g id="Shape">
                <use fill="black" fill-opacity="1" filter="url(#filter-3)" xlink:href="#path-2"></use>
                <use fill="url(#linearGradient-1)" fill-rule="evenodd" xlink:href="#path-2"></use>
            </g>
        </g>
    </g>
</svg>